<svg width="611" height="403" viewBox="0 0 611 403" fill="none" xmlns="http://www.w3.org/2000/svg">
<path d="M307.553 0H328.087L341.777 1.36765L355.466 3.64706L367.33 6.38235L379.65 10.0294L392.884 15.0441L403.835 20.0588L414.33 25.5294L422.544 30.5441L432.583 37.3824L438.515 41.9412L444.447 46.9559L448.097 50.1471L455.398 56.9853L456.311 58.8088L458.136 59.7206L463.612 65.6471L469.087 72.0294L474.563 79.3235L480.495 87.5294L486.884 97.5588L493.728 109.868L495.097 112.603L495.553 113.059H498.748L510.155 108.956L519.282 104.853L528.864 99.8382L535.709 95.2794L540.728 91.1765L545.291 86.6176L547.573 82.5147L548.029 77.9559L546.66 75.2206L543.466 72.4853L538.903 70.6618L531.602 69.2941L526.583 68.8382H511.981L498.291 70.2059L490.99 71.1176L487.34 67.0147L483.689 62L478.67 56.0735L476.388 53.3382V51.5147L481.864 50.1471L498.748 47.4118L514.718 45.5882L525.67 44.6765L534.34 44.2206H558.981L574.495 45.5882L586.359 47.8676L594.573 50.6029L601.874 54.25L606.437 57.8971L609.631 62.4559L611 66.5588V73.8529L609.175 79.3235L606.437 84.7941L602.33 90.2647L598.223 94.8235L591.379 101.662L586.359 105.765L579.058 111.235L571.301 116.25L563.544 120.809L554.874 125.368L543.466 130.382L532.058 134.485L520.65 137.676L510.155 139.956L500.117 141.324L493.728 141.779H477.757L466.35 140.868L454.942 139.044L443.99 136.309L431.67 132.206L420.718 127.191L413.874 123.544L405.66 118.074L397.903 112.147L390.602 105.309L386.039 100.294L381.932 95.2794L378.738 91.1765V90.2647L375.544 89.8088L374.175 91.6324V116.706L372.35 128.103L369.612 137.221L365.049 148.618L360.029 157.735L355.01 165.029L349.534 172.324L342.689 179.618L339.495 183.265L335.845 186.912L332.194 190.103L327.631 194.206L321.243 199.221L314.398 204.691L304.359 211.529L297.515 216.088L288.388 221.559L276.981 227.941L261.922 235.691L249.146 241.618L231.806 248.912L214.01 255.75L197.126 261.676L179.786 267.147L159.709 272.618L142.369 276.721L129.136 279.456L110.427 282.647L92.1748 284.926L80.767 285.838L71.6408 286.294H53.8447L41.5243 285.382L28.2913 283.103L19.165 280.368L11.8641 276.721L7.75728 273.985L5.01942 271.706L1.82524 267.147L0 261.676V256.206L1.36893 250.735L5.01942 243.897L9.58252 237.971L12.7767 234.779L15.9709 231.132L19.6214 227.941L26.466 222.015L35.5922 215.176L42.8932 210.162L53.3884 203.324L64.7961 196.485L77.1165 189.647L89.8932 182.809L97.1942 179.162L99.4757 179.618L97.6505 198.309L96.7379 201.5L94.4563 203.324L87.6117 207.426L82.1359 211.074L74.835 216.544L67.9903 222.926L64.3398 227.029L61.6019 231.588L60.233 236.603L60.6893 241.162L62.0583 243.897L64.3398 246.176L67.9903 248.456L72.5534 250.279L79.3981 251.647L83.9612 252.103H95.8252L109.971 250.735L114.99 249.824L115.447 247.544L113.165 230.221L112.252 218.368V199.221L113.621 182.809L116.359 166.397L119.097 154.544L123.204 141.324L126.854 131.294L131.417 120.809L135.068 113.515L139.175 105.765L146.019 94.3676L151.495 86.6176L156.058 80.6912L159.709 76.1324L165.184 69.75L172.029 62.4559L179.33 55.1618L182.981 51.9706L189.825 46.0441L197.126 40.5735L204.883 35.1029L213.553 29.6324L223.136 24.1618L235 18.2353L249.146 12.3088L266.029 6.83824L277.437 4.10294L289.757 1.82353L307.553 0ZM514.262 153.632H516.544L518.369 159.559L520.65 169.588L522.476 181.897L523.388 191.015V217.912L521.563 234.324L519.282 246.632L516.087 259.397L510.612 275.809L505.592 287.662L499.66 299.515L493.728 309.544L485.971 320.941L480.951 327.324L475.476 333.706L471.369 338.265L468.175 341.912L460.874 349.206L457.223 352.397L452.66 356.5L446.272 361.515L437.602 367.897L428.932 373.368L421.631 377.471L411.136 382.941L398.816 388.412L386.039 392.971L373.262 396.618L358.204 399.809L345.884 401.632L336.757 402.544L328.544 403H318.961L304.359 402.088L289.301 399.809L275.155 396.618L263.291 392.515L251.884 387.5L243.214 382.485L236.825 377.926L232.262 374.279L224.505 366.529L219.485 359.691L214.922 351.029L212.184 342.824L211.272 337.809L210.816 332.794V328.235L211.728 320.485L214.01 311.824L216.748 304.529L221.311 295.868L225.874 289.029L230.893 282.647L236.369 276.721L242.301 270.794L247.32 266.691L253.709 261.676L263.291 255.294L271.505 250.735L278.806 247.088L287.932 242.985L301.621 238.426L312.573 235.691L326.262 233.412L338.126 232.5H349.534L364.136 233.868L374.631 235.691L384.214 238.426L394.252 242.074L401.553 245.721L408.854 249.824L416.155 255.294L420.718 259.397L426.65 265.324L432.126 273.074L435.777 279.456L437.602 280.368L438.971 279.912L439.427 279L438.971 273.074L438.515 269.882V253.926L439.884 245.265L442.165 236.147L445.816 226.574L450.379 217L456.311 207.426L461.786 199.676L467.718 192.382L471.825 187.824L475.932 183.265L480.951 178.25L484.602 175.059L491.447 169.132L499.204 163.206L504.68 159.559L512.437 154.544L514.262 153.632Z" fill="white"/>
</svg>
